<svg width="52" height="53" viewBox="0 0 52 53" fill="none" xmlns="http://www.w3.org/2000/svg">
<g clip-path="url(#clip0_2481_1533)">
<path d="M47.8104 0H3.84678C2.9153 0.00114618 2.0223 0.373422 1.36364 1.03517C0.704988 1.69693 0.334454 2.59413 0.333313 3.52998L0.333313 38.8593C0.334454 39.7951 0.704988 40.6923 1.36364 41.3541C2.0223 42.0158 2.9153 42.3881 3.84678 42.3893H47.8104C48.7418 42.3881 49.6348 42.0158 50.2935 41.3541C50.9522 40.6923 51.3227 39.7951 51.3238 38.8593V3.52998C51.3227 2.59413 50.9522 1.69693 50.2935 1.03517C49.6348 0.373422 48.7418 0.00114618 47.8104 0ZM49.5718 38.8697C49.5702 39.3385 49.3841 39.7878 49.0542 40.1193C48.7242 40.4509 48.277 40.6378 47.8104 40.6394H3.84678C3.3801 40.6378 2.93298 40.4509 2.60298 40.1193C2.27299 39.7878 2.08689 39.3385 2.0853 38.8697V3.52998C2.08667 3.06096 2.27266 2.61152 2.60268 2.27978C2.9327 1.94805 3.37995 1.76096 3.84678 1.75936H47.8104C48.277 1.76096 48.7242 1.94793 49.0542 2.27948C49.3841 2.61102 49.5702 3.06024 49.5718 3.52912V38.8723V38.8697Z" fill="#7C5368"/>
<path d="M32.8496 51.9755L31.0881 41.3752C31.0541 41.1701 30.9488 40.9838 30.7909 40.8493C30.6331 40.7148 30.4329 40.6409 30.2259 40.6406H21.4341C21.2271 40.6409 21.0269 40.7148 20.8691 40.8493C20.7112 40.9838 20.6059 41.1701 20.5719 41.3752L18.8044 51.9755C18.7833 52.1015 18.7899 52.2305 18.8235 52.3537C18.8571 52.4768 18.917 52.5912 18.9991 52.6887C19.0811 52.7862 19.1834 52.8646 19.2986 52.9184C19.4139 52.9723 19.5395 53.0002 19.6666 53.0003H31.9788C32.1062 53.0005 32.2322 52.9727 32.3479 52.919C32.4636 52.8653 32.5662 52.7869 32.6487 52.6893C32.7309 52.5916 32.7914 52.4774 32.826 52.3543C32.8606 52.2312 32.8687 52.102 32.8496 51.9755ZM20.7124 51.2306L22.1782 42.4008H29.4827L30.9485 51.2306H20.7124Z" fill="#7C5368"/>
<path d="M51.3336 33.5703H2.09503V35.3401H51.3336V33.5703Z" fill="#7C5368"/>
<path d="M37.0639 9.1606C36.9819 9.05906 36.8782 8.97748 36.7603 8.92197C36.6425 8.86646 36.5137 8.83847 36.3836 8.84008H15.8495L15.2623 6.00397C15.2223 5.80428 15.1144 5.62481 14.9571 5.49631C14.7997 5.36782 14.6028 5.29831 14.4001 5.2997H11.7592V7.06946H13.6862L17.0557 23.1558C17.0957 23.3555 17.2036 23.5349 17.3609 23.6634C17.5182 23.7919 17.7151 23.8614 17.9179 23.8601H33.7453C33.949 23.8592 34.1461 23.7875 34.3033 23.6573C34.4604 23.527 34.5679 23.3462 34.6075 23.1454L37.245 9.89171C37.268 9.76391 37.2637 9.63267 37.2325 9.50664C37.2013 9.38061 37.1438 9.26267 37.0639 9.1606ZM33.0254 22.079H18.6309L16.2168 10.5994H35.2981L33.0254 22.079Z" fill="#7C5368"/>
<path d="M10.0079 3.53027C9.48625 3.53027 8.97632 3.68569 8.54259 3.97686C8.10886 4.26803 7.77082 4.68188 7.57119 5.16608C7.37157 5.65029 7.31934 6.18309 7.42111 6.69711C7.52287 7.21113 7.77407 7.6833 8.14292 8.05389C8.51178 8.42448 8.98174 8.67685 9.49335 8.7791C10.005 8.88134 10.5353 8.82887 11.0172 8.62831C11.4991 8.42774 11.9111 8.0881 12.2009 7.65233C12.4907 7.21657 12.6454 6.70424 12.6454 6.18015C12.644 5.47778 12.3657 4.80457 11.8714 4.30792C11.377 3.81127 10.707 3.53165 10.0079 3.53027ZM10.0079 7.07065C9.83464 7.07065 9.66528 7.01904 9.52122 6.92233C9.37716 6.82562 9.26489 6.68817 9.19858 6.52735C9.13228 6.36653 9.11494 6.18956 9.14874 6.01884C9.18254 5.84811 9.26596 5.69129 9.38847 5.56821C9.51098 5.44512 9.66707 5.3613 9.837 5.32734C10.0069 5.29338 10.1831 5.31081 10.3431 5.37742C10.5032 5.44403 10.64 5.55684 10.7363 5.70158C10.8325 5.84631 10.8839 6.01647 10.8839 6.19054C10.884 6.30615 10.8614 6.42065 10.8174 6.52748C10.7735 6.63431 10.7089 6.73138 10.6276 6.81313C10.5462 6.89488 10.4496 6.9597 10.3433 7.00389C10.2369 7.04808 10.123 7.07077 10.0079 7.07065Z" fill="#7C5368"/>
<path d="M19.5181 26.4995L18.7766 22.7937L17.0522 23.1454L17.9282 27.5633C17.9678 27.7641 18.0753 27.9449 18.2324 28.0752C18.3896 28.2054 18.5867 28.2771 18.7904 28.278H32.8538V26.4978L19.5181 26.4995Z" fill="#7C5368"/>
<path d="M32.8599 26.5C32.3383 26.5 31.8284 26.6554 31.3946 26.9466C30.9609 27.2378 30.6229 27.6516 30.4232 28.1358C30.2236 28.62 30.1714 29.1528 30.2732 29.6668C30.3749 30.1809 30.6261 30.653 30.995 31.0236C31.3638 31.3942 31.8338 31.6466 32.3454 31.7488C32.857 31.8511 33.3873 31.7986 33.8693 31.598C34.3512 31.3975 34.7631 31.0578 35.0529 30.6221C35.3427 30.1863 35.4974 29.674 35.4974 29.1499C35.496 28.4475 35.2177 27.7743 34.7234 27.2776C34.2291 26.781 33.559 26.5014 32.8599 26.5ZM32.8599 30.03C32.6867 30.03 32.5173 29.9784 32.3733 29.8817C32.2292 29.785 32.1169 29.6475 32.0506 29.4867C31.9843 29.3259 31.967 29.1489 32.0008 28.9782C32.0346 28.8074 32.118 28.6506 32.2405 28.5275C32.363 28.4044 32.5191 28.3206 32.689 28.2867C32.859 28.2527 33.0351 28.2701 33.1952 28.3367C33.3553 28.4034 33.4921 28.5162 33.5883 28.6609C33.6846 28.8056 33.7359 28.9758 33.7359 29.1499C33.736 29.2655 33.7135 29.38 33.6695 29.4868C33.6255 29.5936 33.561 29.6907 33.4796 29.7725C33.3983 29.8542 33.3017 29.919 33.1953 29.9632C33.089 30.0074 32.975 30.0301 32.8599 30.03Z" fill="#7C5368"/>
<path d="M18.7965 26.5C18.2748 26.5 17.7649 26.6554 17.3312 26.9466C16.8974 27.2378 16.5594 27.6516 16.3598 28.1358C16.1601 28.62 16.1079 29.1528 16.2097 29.6668C16.3114 30.1809 16.5626 30.653 16.9315 31.0236C17.3004 31.3942 17.7703 31.6466 18.2819 31.7488C18.7935 31.8511 19.3239 31.7986 19.8058 31.598C20.2877 31.3975 20.6996 31.0578 20.9894 30.6221C21.2793 30.1863 21.4339 29.674 21.4339 29.1499C21.4326 28.4475 21.1543 27.7743 20.6599 27.2776C20.1656 26.781 19.4955 26.5014 18.7965 26.5ZM18.7965 30.03C18.6232 30.03 18.4539 29.9784 18.3098 29.8817C18.1657 29.785 18.0535 29.6475 17.9872 29.4867C17.9209 29.3259 17.9035 29.1489 17.9373 28.9782C17.9711 28.8074 18.0545 28.6506 18.177 28.5275C18.2996 28.4044 18.4556 28.3206 18.6256 28.2867C18.7955 28.2527 18.9716 28.2701 19.1317 28.3367C19.2918 28.4034 19.4286 28.5162 19.5248 28.6609C19.6211 28.8056 19.6725 28.9758 19.6725 29.1499C19.6726 29.2655 19.65 29.38 19.606 29.4868C19.562 29.5936 19.4975 29.6907 19.4161 29.7725C19.3348 29.8542 19.2382 29.919 19.1318 29.9632C19.0255 30.0074 18.9115 30.0301 18.7965 30.03Z" fill="#7C5368"/>
<path d="M26.7089 10.6003H24.9474V22.9704H26.7089V10.6003Z" fill="#7C5368"/>
<path d="M21.4351 9.65575L19.6776 9.77344L20.5566 23.0254L22.3142 22.9078L21.4351 9.65575Z" fill="#7C5368"/>
<path d="M30.2327 9.65428L29.355 22.9064L31.1126 23.0239L31.9903 9.77178L30.2327 9.65428Z" fill="#7C5368"/>
<path d="M39.0219 21.1999C38.9069 21.1997 38.7929 21.2224 38.6866 21.2666C38.5803 21.3108 38.4836 21.3756 38.4023 21.4574C38.3209 21.5391 38.2564 21.6362 38.2124 21.743C38.1684 21.8499 38.1458 21.9644 38.146 22.08V25.6074H39.8971V22.9575H42.5346V21.1895H39.0211L39.0219 21.1999Z" fill="#7C5368"/>
<path d="M39.6379 21.4488L38.3924 22.7002L41.9114 26.2357L43.1569 24.9843L39.6379 21.4488Z" fill="#7C5368"/>
<path d="M35.4981 13.2502H16.159V15.02H35.4981V13.2502Z" fill="#7C5368"/>
<path d="M34.6222 17.6698H17.035V19.4396H34.6222V17.6698Z" fill="#7C5368"/>
</g>
<defs>
<clipPath id="clip0_2481_1533">
<rect width="51" height="53" fill="white" transform="translate(0.333313)"/>
</clipPath>
</defs>
</svg>
