<svg width="25" height="25" viewBox="0 0 25 25" fill="none" xmlns="http://www.w3.org/2000/svg">
<path d="M12.5295 0.954895C18.9217 0.954895 24.1035 6.13678 24.1035 12.529C24.1035 18.9212 18.9217 24.103 12.5295 24.103C6.13728 24.103 0.955395 18.9212 0.955395 12.529C0.955395 6.13678 6.13728 0.954895 12.5295 0.954895ZM12.5295 1.88082C6.64866 1.88082 1.88132 6.64816 1.88132 12.529C1.88132 18.4098 6.64866 23.1771 12.5295 23.1771C18.4103 23.1771 23.1776 18.4098 23.1776 12.529C23.1776 6.64816 18.4103 1.88082 12.5295 1.88082Z" fill="#9C9C9C"/>
<path d="M24.0046 0.395325L24.6595 1.04994L1.05458 24.6632L0.399731 24.0086L24.0046 0.395325Z" fill="#9C9C9C"/>
</svg>
