<svg width="62" height="54" viewBox="0 0 62 54" fill="none" xmlns="http://www.w3.org/2000/svg">
<g clip-path="url(#clip0_2481_1583)">
<path d="M17.574 6.23145C14.9176 6.23214 12.3211 7.02431 10.1127 8.50779C7.90434 9.99127 6.18331 12.0994 5.16723 14.5658C4.15115 17.0321 3.88566 19.7457 4.40431 22.3636C4.92297 24.9816 6.20249 27.3862 8.08108 29.2734C9.95967 31.1606 12.353 32.4457 14.9584 32.9662C17.5638 33.4867 20.2642 33.2193 22.7183 32.1976C25.1725 31.1759 27.27 29.446 28.7457 27.2265C30.2215 25.007 31.0091 22.3977 31.0091 19.7284C31.0022 16.1503 29.5844 12.7208 27.0662 10.191C24.5481 7.66126 21.1348 6.23745 17.574 6.23145ZM17.574 31.1563C15.3247 31.1563 13.1259 30.4861 11.2557 29.2304C9.38544 27.9747 7.92777 26.1899 7.067 24.1017C6.20623 22.0135 5.98101 19.7157 6.41983 17.4989C6.85865 15.2821 7.94179 13.2458 9.53229 11.6476C11.1228 10.0494 13.1492 8.96097 15.3553 8.52002C17.5614 8.07907 19.848 8.30538 21.9261 9.17033C24.0042 10.0353 25.7804 11.5 27.03 13.3794C28.2797 15.2587 28.9467 17.4681 28.9467 19.7284C28.9441 22.7585 27.7451 25.6638 25.6129 27.8064C23.4806 29.949 20.5894 31.1538 17.574 31.1563Z" fill="#7C5368"/>
<path d="M17.574 0C16.7573 0.000691395 15.9591 0.244685 15.2804 0.701136C14.6016 1.15759 14.0728 1.806 13.7607 2.56442C13.4487 3.32283 13.3674 4.15719 13.5271 4.96202C13.6869 5.76686 14.0805 6.50603 14.6583 7.08609C15.236 7.66616 15.9719 8.06109 16.773 8.22094C17.5741 8.38079 18.4043 8.2984 19.1588 7.98418C19.9133 7.66996 20.5581 7.13801 21.0118 6.45559C21.4655 5.77316 21.7076 4.9709 21.7076 4.15022C21.7062 3.04933 21.2702 1.99398 20.4952 1.21587C19.7202 0.437753 18.6696 0.000462264 17.574 0ZM17.574 6.23144C17.1644 6.23144 16.7639 6.10938 16.4233 5.88069C16.0827 5.652 15.8172 5.32696 15.6605 4.94667C15.5037 4.56637 15.4627 4.14791 15.5426 3.74419C15.6225 3.34047 15.8198 2.96963 16.1095 2.67857C16.3991 2.3875 16.7682 2.18928 17.1699 2.10898C17.5717 2.02867 17.9881 2.06989 18.3666 2.22741C18.745 2.38494 19.0685 2.65169 19.2961 2.99395C19.5237 3.3362 19.6452 3.73859 19.6452 4.15022C19.6433 4.70162 19.4245 5.22992 19.0365 5.61983C18.6485 6.00974 18.1227 6.2296 17.574 6.23144Z" fill="#7C5368"/>
<path d="M18.6039 4.15027H16.5327V7.26555H18.6039V4.15027Z" fill="#7C5368"/>
<path d="M7.96356 7.57132L6.49902 9.04297L8.56327 11.1172L10.0278 9.6456L7.96356 7.57132Z" fill="#7C5368"/>
<path d="M8.57106 5.49087L4.43457 9.64746L5.8991 11.1191L10.0356 6.96252L8.57106 5.49087Z" fill="#7C5368"/>
<path d="M27.1668 7.57025L25.1025 9.64453L26.5671 11.1162L28.6313 9.0419L27.1668 7.57025Z" fill="#7C5368"/>
<path d="M26.5705 5.48929L25.106 6.96094L29.2424 11.1175L30.707 9.64588L26.5705 5.48929Z" fill="#7C5368"/>
<path d="M17.5741 21.8099C18.718 21.8099 19.6453 20.8781 19.6453 19.7287C19.6453 18.5793 18.718 17.6475 17.5741 17.6475C16.4302 17.6475 15.5029 18.5793 15.5029 19.7287C15.5029 20.8781 16.4302 21.8099 17.5741 21.8099Z" fill="#7C5368"/>
<path d="M21.8583 10.8806L16.6929 19.1895L18.4494 20.2921L23.6149 11.9833L21.8583 10.8806Z" fill="#7C5368"/>
<path d="M18.6039 10.3817H16.5327V12.4629H18.6039V10.3817Z" fill="#7C5368"/>
<path d="M18.6039 27.0059H16.5327V29.0871H18.6039V27.0059Z" fill="#7C5368"/>
<path d="M13.8201 11.1304L12.0269 12.1719L13.0632 13.9738L14.8565 12.9324L13.8201 11.1304Z" fill="#7C5368"/>
<path d="M22.0903 25.503L20.2974 26.5448L21.3342 28.3465L23.1271 27.3046L22.0903 25.503Z" fill="#7C5368"/>
<path d="M10.0343 14.16L8.99794 15.9619L10.7911 17.0033L11.8275 15.2014L10.0343 14.16Z" fill="#7C5368"/>
<path d="M24.3499 22.4609L23.3135 24.2628L25.1067 25.3042L26.1431 23.5023L24.3499 22.4609Z" fill="#7C5368"/>
<path d="M10.3436 18.6935H8.27246V20.7747H10.3436V18.6935Z" fill="#7C5368"/>
<path d="M26.8755 18.6935H24.8044V20.7747H26.8755V18.6935Z" fill="#7C5368"/>
<path d="M10.7894 22.4644L9.00684 23.5L10.0435 25.3018L11.826 24.2662L10.7894 22.4644Z" fill="#7C5368"/>
<path d="M25.096 14.1676L23.3135 15.2031L24.3501 17.0049L26.1326 15.9693L25.096 14.1676Z" fill="#7C5368"/>
<path d="M13.0494 25.5106L12.0199 27.3024L13.8135 28.343L14.843 26.5512L13.0494 25.5106Z" fill="#7C5368"/>
<path d="M13.4317 41.538C12.2052 41.538 11.0062 41.9035 9.98641 42.5882C8.96661 43.2729 8.17177 44.2461 7.70241 45.3847C7.23305 46.5234 7.11024 47.7763 7.34952 48.9851C7.5888 50.1939 8.17942 51.3042 9.04668 52.1757C9.91395 53.0472 11.0189 53.6407 12.2219 53.8811C13.4248 54.1216 14.6717 53.9982 15.8048 53.5265C16.9379 53.0549 17.9065 52.2562 18.5879 51.2314C19.2693 50.2067 19.633 49.0019 19.633 47.7694C19.6298 46.1177 18.9754 44.5346 17.8131 43.3667C16.6508 42.1988 15.0754 41.5412 13.4317 41.538ZM13.4317 51.9319C12.6148 51.9319 11.8163 51.6885 11.1371 51.2324C10.4579 50.7764 9.92851 50.1282 9.61591 49.3699C9.30331 48.6115 9.22152 47.7771 9.38088 46.972C9.54025 46.1669 9.9336 45.4274 10.5112 44.847C11.0888 44.2666 11.8247 43.8713 12.6259 43.7112C13.4271 43.551 14.2575 43.6332 15.0122 43.9474C15.7669 44.2615 16.4119 44.7934 16.8658 45.4759C17.3196 46.1584 17.5618 46.9608 17.5618 47.7816C17.5604 48.8819 17.1249 49.9367 16.3506 50.7148C15.5763 51.4928 14.5266 51.9305 13.4317 51.9319Z" fill="#7C5368"/>
<path d="M14.4738 46.7345H12.4026V48.8157H14.4738V46.7345Z" fill="#7C5368"/>
<path d="M48.5796 41.538C47.3531 41.538 46.1542 41.9035 45.1344 42.5882C44.1146 43.2729 43.3197 44.2461 42.8504 45.3847C42.381 46.5234 42.2582 47.7763 42.4975 48.9851C42.7368 50.1939 43.3274 51.3042 44.1946 52.1757C45.0619 53.0472 46.1669 53.6407 47.3698 53.8811C48.5728 54.1216 49.8196 53.9982 50.9528 53.5265C52.0859 53.0549 53.0544 52.2562 53.7358 51.2314C54.4172 50.2067 54.7809 49.0019 54.7809 47.7694C54.7777 46.1177 54.1233 44.5346 52.9611 43.3667C51.7988 42.1988 50.2233 41.5412 48.5796 41.538ZM48.5796 51.9319C47.7628 51.9319 46.9642 51.6885 46.285 51.2324C45.6058 50.7764 45.0765 50.1282 44.7639 49.3699C44.4513 48.6115 44.3695 47.7771 44.5288 46.972C44.6882 46.1669 45.0816 45.4274 45.6592 44.847C46.2368 44.2666 46.9727 43.8713 47.7739 43.7112C48.5751 43.551 49.4055 43.6332 50.1602 43.9474C50.9149 44.2615 51.5599 44.7934 52.0137 45.4759C52.4675 46.1584 52.7098 46.9608 52.7098 47.7816C52.7084 48.8819 52.2728 49.9367 51.4986 50.7148C50.7243 51.4928 49.6746 51.9305 48.5796 51.9319Z" fill="#7C5368"/>
<path d="M49.6096 46.7345H47.5384V48.8157H49.6096V46.7345Z" fill="#7C5368"/>
<path d="M43.4074 46.7345H18.603V48.8157H43.4074V46.7345Z" fill="#7C5368"/>
<path d="M61.5755 35.5012L54.6235 30.511L50.0332 16.6732C49.8291 16.0515 49.4345 15.5107 48.9059 15.1281C48.3773 14.7454 47.7418 14.5406 47.0904 14.543H29.9766V16.6242H47.0904C47.3087 16.6232 47.5216 16.6923 47.6981 16.8214C47.8746 16.9505 48.0054 17.1328 48.0716 17.3418L52.7585 31.5013C52.8291 31.7062 52.9602 31.8846 53.1343 32.0127L59.941 36.8928V46.7386H53.7397V48.8198H60.97C61.1053 48.82 61.2392 48.7933 61.3642 48.7413C61.4891 48.6893 61.6027 48.6131 61.6983 48.5169C61.7939 48.4208 61.8696 48.3066 61.9212 48.181C61.9729 48.0554 61.9993 47.9208 61.9991 47.7849V36.3535C62.0058 36.187 61.9705 36.0216 61.8964 35.8726C61.8223 35.7236 61.7119 35.5958 61.5755 35.5012Z" fill="#7C5368"/>
<path d="M2.07116 46.7349V17.0269C2.0707 16.9725 2.08102 16.9185 2.10154 16.8681C2.12205 16.8178 2.15234 16.772 2.19064 16.7335C2.22894 16.695 2.27448 16.6646 2.32461 16.644C2.37474 16.6234 2.42845 16.613 2.48261 16.6135H6.20131V14.5322H2.48261C1.82573 14.5373 1.19717 14.8017 0.732672 15.2685C0.268173 15.7352 0.00500626 16.3668 3.68311e-07 17.0269V47.7698C-0.000114037 47.9056 0.0264252 48.0401 0.0780996 48.1656C0.129774 48.2911 0.205569 48.4052 0.301149 48.5012C0.396728 48.5973 0.510216 48.6734 0.635119 48.7254C0.760021 48.7773 0.893887 48.804 1.02906 48.8038H8.26377V46.7349H2.07116Z" fill="#7C5368"/>
<path d="M60.97 42.584H56.8398V44.6652H60.97V42.584Z" fill="#7C5368"/>
<path d="M7.2306 42.584H1.0293V44.6652H7.2306V42.584Z" fill="#7C5368"/>
<path d="M44.4372 30.1218C44.3019 30.1219 44.1679 30.0952 44.0429 30.0432C43.9179 29.9913 43.8043 29.915 43.7086 29.8189C43.613 29.7228 43.5371 29.6086 43.4854 29.483C43.4337 29.3574 43.4071 29.2228 43.4072 29.0868V21.8213C43.4071 21.6854 43.4337 21.5509 43.4854 21.4253C43.5371 21.2997 43.613 21.1856 43.7087 21.0896C43.8043 20.9935 43.9179 20.9174 44.0429 20.8655C44.1679 20.8136 44.3019 20.787 44.4372 20.7873H49.6085V18.7061H44.4372C43.6154 18.7077 42.8278 19.0364 42.2467 19.6203C41.6657 20.2042 41.3385 20.9956 41.3369 21.8213V29.0868C41.3385 29.9126 41.6657 30.704 42.2467 31.2879C42.8278 31.8718 43.6154 32.2005 44.4372 32.2021H53.7387V30.1218H44.4372Z" fill="#7C5368"/>
<path d="M47.5384 34.2716H43.4083V36.3528H47.5384V34.2716Z" fill="#7C5368"/>
<path d="M40.3073 42.584H20.6743V44.6652H40.3073V42.584Z" fill="#7C5368"/>
<path d="M5.1592 30.1223H1.02905V32.2035H5.1592V30.1223Z" fill="#7C5368"/>
</g>
<defs>
<clipPath id="clip0_2481_1583">
<rect width="62" height="54" fill="white"/>
</clipPath>
</defs>
</svg>
