<svg width="62" height="54" viewBox="0 0 62 54" fill="none" xmlns="http://www.w3.org/2000/svg">
<g clip-path="url(#clip0_2481_1516)">
<path d="M61.6667 31.7099V19.2402C61.6667 18.816 61.4987 18.4091 61.1996 18.1086C60.9005 17.8081 60.4947 17.6386 60.071 17.6372H48.5704C46.9207 12.5285 43.4994 8.17947 38.9253 5.37691C34.3513 2.57435 28.9265 1.50327 23.6322 2.3574C18.3379 3.21154 13.5237 5.93449 10.0604 10.0337C6.59711 14.133 4.71336 19.3378 4.74988 24.7069C4.74966 26.2877 4.91396 27.8643 5.24012 29.4111H2.69941C2.47822 29.4111 2.25919 29.4547 2.05484 29.5395C1.85049 29.6242 1.6648 29.7484 1.5084 29.905C1.35199 30.0616 1.22792 30.2475 1.14328 30.4521C1.05863 30.6567 1.01506 30.876 1.01506 31.0975C1.01574 31.9506 1.08303 32.8023 1.2163 33.6449C0.936591 33.9563 0.781863 34.3604 0.781915 34.7792C0.781882 35.6862 0.856303 36.5916 1.00443 37.4864C0.785756 37.7793 0.667306 38.1351 0.66667 38.5009C0.655022 41.7556 1.61044 44.9403 3.41143 47.6499C5.21242 50.3596 7.77759 52.4717 10.7807 53.7177C10.9866 53.8035 11.2075 53.8476 11.4305 53.8473H24.3114C24.5344 53.8476 24.7553 53.8035 24.9612 53.7177C28.3598 52.3109 31.1849 49.7972 32.9796 46.5833C37.6532 45.3257 41.7979 42.594 44.7993 38.7929V46.4767C44.1564 46.6866 43.5789 47.0599 43.1232 47.5601C42.6674 48.0602 42.3491 48.6702 42.1992 49.3303H41.4607C41.0658 49.3308 40.6873 49.4881 40.4081 49.7676C40.1289 50.0472 39.9718 50.4262 39.9714 50.8215V52.5079C39.9718 52.9032 40.1289 53.2822 40.4081 53.5618C40.6873 53.8413 41.0658 53.9986 41.4607 53.9991H59.3786C59.7735 53.9986 60.152 53.8413 60.4312 53.5618C60.7104 53.2822 60.8675 52.9032 60.8679 52.5079V50.8215C60.8675 50.4262 60.7104 50.0472 60.4312 49.7676C60.152 49.4881 59.7735 49.3308 59.3786 49.3303H58.6437C58.4938 48.6702 58.1754 48.0602 57.7197 47.5601C57.264 47.0599 56.6865 46.6866 56.0436 46.4767V38.2089C57.6053 37.9849 59.0339 37.2043 60.0668 36.0104C61.0998 34.8165 61.6679 33.2895 61.6667 31.7099ZM32.9352 31.1969C32.9308 31.8255 32.8855 32.4532 32.7996 33.0759H2.93965C2.85382 32.4532 2.80851 31.8255 2.80402 31.1969H32.9352ZM24.2901 52.0552H11.4492C9.70334 51.3287 8.11538 50.2691 6.77376 48.9354H28.969C27.6277 50.2703 26.0397 51.3312 24.2936 52.0588L24.2901 52.0552ZM30.4956 47.146H5.241C3.43962 44.6526 2.4648 41.6563 2.45385 38.579H23.1837C23.4207 38.579 23.648 38.4847 23.8156 38.3169C23.9832 38.1491 24.0773 37.9216 24.0773 37.6843C24.0773 37.447 23.9832 37.2194 23.8156 37.0517C23.648 36.8839 23.4207 36.7896 23.1837 36.7896H2.70562C2.61703 36.1504 2.57054 35.5061 2.56644 34.8609H33.1737C33.1696 35.5061 33.1231 36.1504 33.0345 36.7896H27.9496C27.7126 36.7896 27.4853 36.8839 27.3177 37.0517C27.1501 37.2194 27.056 37.447 27.056 37.6843C27.056 37.9216 27.1501 38.1491 27.3177 38.3169C27.4853 38.4847 27.7126 38.579 27.9496 38.579H33.2898C33.2792 41.6577 32.3037 44.6554 30.5009 47.1495L30.4956 47.146ZM33.9919 44.3945C34.7067 42.5099 35.0723 40.5106 35.0708 38.4947C35.0708 38.1284 34.9527 37.7719 34.7339 37.4784C34.8821 36.5836 34.9565 35.6782 34.9565 34.7712C34.9565 34.3524 34.8018 33.9483 34.5221 33.6369C34.655 32.7949 34.7219 31.9438 34.7224 31.0913C34.7224 31.0718 34.7224 31.0522 34.7224 31.0327C36.2699 29.1745 37.0838 26.8131 37.0101 24.3948C36.9365 21.9765 35.9804 19.6691 34.3226 17.9088C34.159 17.7364 33.9336 17.6361 33.6961 17.63C33.4586 17.624 33.2285 17.7126 33.0562 17.8764C32.884 18.0403 32.7839 18.2659 32.7778 18.5037C32.7717 18.7415 32.8602 18.9719 33.0239 19.1443C34.3264 20.5263 35.1022 22.3228 35.2157 24.2195C35.3291 26.1162 34.7729 27.9925 33.6444 29.5203C33.4536 29.4462 33.2507 29.408 33.046 29.4075H20.7237C19.7491 28.0642 19.2135 26.4519 19.1904 24.7918C19.1672 23.1316 19.6576 21.5049 20.5943 20.1349C21.531 18.7649 22.8682 17.7185 24.4223 17.1395C25.9765 16.5604 27.6715 16.4769 29.2749 16.9005C29.389 16.933 29.5085 16.9425 29.6263 16.9283C29.7441 16.9141 29.8579 16.8766 29.961 16.8179C30.0642 16.7592 30.1546 16.6805 30.2271 16.5864C30.2996 16.4923 30.3526 16.3847 30.3831 16.2699C30.4136 16.1551 30.4209 16.0354 30.4047 15.9177C30.3885 15.8 30.349 15.6867 30.2886 15.5845C30.2282 15.4822 30.148 15.3931 30.0528 15.3221C29.9576 15.2512 29.8493 15.2 29.7341 15.1715C27.8784 14.6909 25.923 14.7634 24.1079 15.3801C22.2928 15.9968 20.6971 17.1309 19.5168 18.6429C18.3365 20.155 17.623 21.9793 17.4638 23.8918C17.3047 25.8042 17.7068 27.7216 18.6209 29.4084H7.07074C6.36912 26.3634 6.35984 23.1994 7.0436 20.1503C7.72735 17.1011 9.08666 14.2448 11.0211 11.7923C12.9555 9.33983 15.4156 7.35389 18.2196 5.98122C21.0235 4.60856 24.0997 3.88426 27.2209 3.86184C31.4851 3.87547 35.6414 5.20557 39.123 7.67077C42.6046 10.136 45.2422 13.6163 46.676 17.6372H40.771C40.3473 17.6386 39.9414 17.8081 39.6423 18.1086C39.3432 18.4091 39.1753 18.816 39.1753 19.2402V31.709C39.1747 33.0218 39.567 34.3046 40.3016 35.392C41.0363 36.4794 42.0794 37.3214 43.2966 37.8094C40.8717 40.8314 37.6513 43.1143 33.999 44.4007L33.9919 44.3945ZM45.6875 48.1303C46.042 48.152 46.3826 48.276 46.6681 48.4874C46.9537 48.6988 47.172 48.9885 47.2965 49.3215H44.0785C44.2044 48.9889 44.4239 48.6999 44.7104 48.4896C44.9969 48.2793 45.3382 48.1567 45.6928 48.1365L45.6875 48.1303ZM46.5873 46.4741V38.2089C48.0546 38.0027 49.4074 37.3006 50.4214 36.2189C51.435 37.2998 52.7872 38.0013 54.2538 38.2071V46.4732C53.6109 46.683 53.0333 47.0563 52.5776 47.5564C52.1218 48.0566 51.8035 48.6666 51.6537 49.3268H49.1865C49.0366 48.6669 48.7184 48.0571 48.2628 47.5571C47.8073 47.0571 47.23 46.684 46.5873 46.4741ZM49.628 52.2106H41.7594V51.1171H49.6271L49.628 52.2106ZM59.0825 51.1171V52.2106H51.4143V51.1171H59.0825ZM56.7581 49.3277H53.5401C53.6465 48.9836 53.8601 48.6828 54.1496 48.469C54.4392 48.2553 54.7894 48.14 55.1491 48.14C55.5088 48.14 55.8591 48.2553 56.1486 48.469C56.4381 48.6828 56.6517 48.9836 56.7581 49.3277ZM55.1474 36.4852C54.4438 36.4843 53.7495 36.3256 53.1152 36.0207C52.481 35.7158 51.9231 35.2725 51.4826 34.7233C51.9629 33.7924 52.2131 32.7596 52.2122 31.7117V28.6699C52.2122 28.4327 52.118 28.2051 51.9504 28.0373C51.7828 27.8695 51.5556 27.7753 51.3186 27.7753C51.0816 27.7753 50.8543 27.8695 50.6867 28.0373C50.5191 28.2051 50.425 28.4327 50.425 28.6699V31.7099C50.425 32.9665 49.9264 34.1716 49.039 35.0602C48.1515 35.9487 46.9479 36.4479 45.6928 36.4479C44.4378 36.4479 43.2342 35.9487 42.3467 35.0602C41.4593 34.1716 40.9607 32.9665 40.9607 31.7099V19.4266H50.425V23.8983C50.425 24.1356 50.5191 24.3631 50.6867 24.5309C50.8543 24.6987 51.0816 24.793 51.3186 24.793C51.5556 24.793 51.7828 24.6987 51.9504 24.5309C52.118 24.3631 52.2122 24.1356 52.2122 23.8983V19.4266H59.8795V31.7099C59.8833 32.9711 59.3871 34.1823 58.4999 35.0775C57.6127 35.9728 56.407 36.4791 55.1474 36.4852Z" fill="#7C5368"/>
<path d="M7.881 8.01222C6.73564 7.65719 6.64611 7.56843 6.2853 6.41456C6.2109 6.17416 6.0616 5.96391 5.85926 5.81459C5.65691 5.66527 5.41215 5.58472 5.16078 5.58472C4.90941 5.58472 4.66464 5.66527 4.46229 5.81459C4.25995 5.96391 4.11065 6.17416 4.03625 6.41456C3.68165 7.5631 3.593 7.65275 2.44499 8.01222C2.20535 8.08721 1.9959 8.23687 1.84718 8.43941C1.69846 8.64194 1.61826 8.88675 1.61826 9.13813C1.61826 9.3895 1.69846 9.63432 1.84718 9.83685C1.9959 10.0394 2.20535 10.189 2.44499 10.264C3.59034 10.6191 3.67988 10.7078 4.03625 11.8617C4.11065 12.1021 4.25995 12.3123 4.46229 12.4617C4.66464 12.611 4.90941 12.6915 5.16078 12.6915C5.41215 12.6915 5.65691 12.611 5.85926 12.4617C6.0616 12.3123 6.2109 12.1021 6.2853 11.8617C6.6399 10.7132 6.72855 10.6235 7.881 10.264C8.12064 10.189 8.33009 10.0394 8.47881 9.83685C8.62752 9.63432 8.70773 9.3895 8.70773 9.13813C8.70773 8.88675 8.62752 8.64194 8.47881 8.43941C8.33009 8.23687 8.12064 8.08721 7.881 8.01222ZM5.16565 9.95072C4.96023 9.62076 4.68141 9.3428 4.35096 9.13857C4.68016 8.93396 4.95775 8.65603 5.16211 8.32643C5.36649 8.65601 5.64407 8.93393 5.97325 9.13857C5.64535 9.34361 5.369 9.62151 5.16565 9.95072Z" fill="#7C5368"/>
<path d="M58.6232 11.3084C57.4779 10.9533 57.3884 10.8646 57.0276 9.71071C56.9532 9.47031 56.8039 9.26006 56.6015 9.11074C56.3992 8.96142 56.1544 8.88086 55.903 8.88086C55.6517 8.88086 55.4069 8.96142 55.2046 9.11074C55.0022 9.26006 54.8529 9.47031 54.7785 9.71071C54.4239 10.8593 54.3353 10.9489 53.1872 11.3084C52.9476 11.3833 52.7382 11.533 52.5894 11.7356C52.4407 11.9381 52.3605 12.1829 52.3605 12.4343C52.3605 12.6857 52.4407 12.9305 52.5894 13.133C52.7382 13.3355 52.9476 13.4852 53.1872 13.5602C54.3326 13.9152 54.4222 14.004 54.783 15.1578C54.8574 15.3982 55.0066 15.6085 55.209 15.7578C55.4113 15.9071 55.6561 15.9877 55.9075 15.9877C56.1588 15.9877 56.4036 15.9071 56.6059 15.7578C56.8083 15.6085 56.9576 15.3982 57.032 15.1578C57.3866 14.0093 57.4752 13.9152 58.6277 13.5602C58.8673 13.4852 59.0768 13.3355 59.2255 13.133C59.3742 12.9305 59.4544 12.6857 59.4544 12.4343C59.4544 12.1829 59.3742 11.9381 59.2255 11.7356C59.0768 11.533 58.8673 11.3833 58.6277 11.3084H58.6232ZM55.907 13.2469C55.7027 12.9173 55.4251 12.6393 55.0959 12.4347C55.4251 12.2301 55.7026 11.9522 55.907 11.6226C56.1114 11.9522 56.389 12.2301 56.7182 12.4347C56.3895 12.6393 56.1122 12.9169 55.9079 13.246L55.907 13.2469Z" fill="#7C5368"/>
<path d="M49.9578 2.9175C48.5172 2.46838 48.3621 2.31483 47.9188 0.870723C47.8407 0.618404 47.684 0.397739 47.4716 0.24102C47.2592 0.0843016 47.0023 -0.000244141 46.7385 -0.000244141C46.4746 -0.000244141 46.2177 0.0843016 46.0053 0.24102C45.7929 0.397739 45.6362 0.618404 45.5581 0.870723C45.1095 2.31483 44.957 2.46838 43.5191 2.9175C43.2695 2.99837 43.0519 3.15635 42.8976 3.36877C42.7433 3.58118 42.6601 3.8371 42.6601 4.09977C42.6601 4.36244 42.7433 4.61836 42.8976 4.83077C43.0519 5.04318 43.2695 5.20117 43.5191 5.28204C44.9597 5.73204 45.1148 5.88471 45.5581 7.32882C45.6362 7.58114 45.7929 7.8018 46.0053 7.95852C46.2177 8.11524 46.4746 8.19978 46.7385 8.19978C47.0023 8.19978 47.2592 8.11524 47.4716 7.95852C47.684 7.8018 47.8407 7.58114 47.9188 7.32882C48.3674 5.88382 48.5208 5.73116 49.9578 5.28115C50.2074 5.20028 50.425 5.0423 50.5793 4.82988C50.7336 4.61747 50.8168 4.36155 50.8168 4.09888C50.8168 3.83621 50.7336 3.58029 50.5793 3.36788C50.425 3.15547 50.2074 2.99837 49.9578 2.9175ZM46.7362 5.456C46.4425 4.86939 45.9674 4.39341 45.3817 4.09888C45.9674 3.80446 46.4426 3.32845 46.7362 2.74176C47.03 3.32841 47.5051 3.8044 48.0908 4.09888C47.5051 4.39346 47.0301 4.86943 46.7362 5.456Z" fill="#7C5368"/>
</g>
<defs>
<clipPath id="clip0_2481_1516">
<rect width="61" height="54" fill="white" transform="translate(0.666656)"/>
</clipPath>
</defs>
</svg>
