<svg width="56" height="51" viewBox="0 0 56 51" fill="none" xmlns="http://www.w3.org/2000/svg">
<g clip-path="url(#clip0_2481_1482)">
<path d="M29.7449 41.1885C29.1566 41.1885 28.5816 41.361 28.0924 41.6843C27.6033 42.0076 27.222 42.4671 26.9969 43.0047C26.7718 43.5423 26.7129 44.1339 26.8277 44.7046C26.9424 45.2754 27.2257 45.7996 27.6417 46.2111C28.0577 46.6225 28.5877 46.9028 29.1646 47.0163C29.7416 47.1298 30.3397 47.0715 30.8832 46.8489C31.4267 46.6262 31.8912 46.2491 32.218 45.7652C32.5449 45.2814 32.7193 44.7126 32.7193 44.1307C32.7185 43.3506 32.4049 42.6027 31.8472 42.0511C31.2896 41.4995 30.5335 41.1893 29.7449 41.1885ZM29.7449 45.1042C29.548 45.1042 29.3555 45.0464 29.1918 44.9382C29.0281 44.83 28.9005 44.6762 28.8252 44.4963C28.7498 44.3164 28.7301 44.1184 28.7685 43.9274C28.807 43.7364 28.9018 43.5609 29.041 43.4232C29.1802 43.2855 29.3576 43.1917 29.5507 43.1537C29.7438 43.1157 29.944 43.1352 30.1259 43.2097C30.3078 43.2843 30.4632 43.4105 30.5726 43.5724C30.682 43.7344 30.7404 43.9247 30.7404 44.1195C30.7396 44.3804 30.6345 44.6304 30.4479 44.8149C30.2614 44.9994 30.0087 45.1034 29.7449 45.1042Z" fill="#7C5368"/>
<path d="M29.7455 37.262C28.372 37.262 27.0294 37.6648 25.8875 38.4196C24.7455 39.1744 23.8554 40.2472 23.3298 41.5023C22.8042 42.7575 22.6667 44.1386 22.9346 45.4711C23.2026 46.8035 23.864 48.0275 24.8351 48.9881C25.8063 49.9488 27.0437 50.603 28.3907 50.868C29.7378 51.1331 31.1341 50.997 32.403 50.4771C33.6719 49.9572 34.7564 49.0768 35.5194 47.9472C36.2825 46.8176 36.6898 45.4895 36.6898 44.131C36.6872 42.31 35.9547 40.5643 34.653 39.2767C33.3512 37.989 31.5864 37.2645 29.7455 37.262ZM29.7455 49.0306C28.7657 49.0306 27.8079 48.7432 26.9932 48.2048C26.1785 47.6663 25.5435 46.901 25.1685 46.0055C24.7936 45.1101 24.6955 44.1248 24.8866 43.1742C25.0778 42.2236 25.5496 41.3505 26.2424 40.6651C26.9353 39.9798 27.818 39.5131 28.779 39.324C29.74 39.1349 30.7361 39.232 31.6413 39.6029C32.5466 39.9738 33.3203 40.6019 33.8646 41.4077C34.409 42.2136 34.6996 43.161 34.6996 44.1302C34.699 45.4297 34.1768 46.6758 33.2479 47.5947C32.3189 48.5136 31.0592 49.03 29.7455 49.0306Z" fill="#7C5368"/>
<path d="M24.7809 27.4512H22.8013V44.1202H24.7809V27.4512Z" fill="#7C5368"/>
<path d="M11.9089 3.55565C11.4846 2.77898 10.8563 2.12992 10.0903 1.67687C9.32433 1.22382 8.44896 0.983576 7.55648 0.981445H0V2.93966H7.55648C8.09262 2.94072 8.61852 3.08503 9.07859 3.35735C9.53866 3.62967 9.91581 4.01987 10.1702 4.48672L28.8705 38.7119L30.6205 37.7816L11.9089 3.55565Z" fill="#7C5368"/>
<path d="M55.037 33.4587L35.2168 44.2461L36.171 45.9615L55.9912 35.1741L55.037 33.4587Z" fill="#7C5368"/>
<path d="M43.4917 16.1901L34.5685 0.505759C34.4376 0.278233 34.2211 0.111151 33.9661 0.0409715C33.8412 0.00406462 33.7101 -0.00730801 33.5806 0.00754649C33.4512 0.022401 33.3261 0.0631716 33.2131 0.127374L17.3562 8.95387C17.1277 9.08067 16.9592 9.29174 16.8876 9.54099C16.8159 9.79024 16.8468 10.0574 16.9736 10.2842L25.8968 25.9797C26.0277 26.2072 26.2443 26.3743 26.4992 26.4445C26.5852 26.466 26.6734 26.477 26.762 26.4773C26.9313 26.4778 27.0976 26.4331 27.2432 26.3476L43.1001 17.5212C43.2149 17.4599 43.3163 17.3767 43.3983 17.2764C43.4802 17.1761 43.5412 17.0606 43.5777 16.9367C43.6141 16.8129 43.6253 16.6831 43.6105 16.5549C43.5958 16.4267 43.5554 16.3027 43.4917 16.1901ZM27.1431 24.16L19.1928 10.1762L33.3321 2.31202L41.2824 16.2989L27.1431 24.16Z" fill="#7C5368"/>
<path d="M31.429 7.83838L28.9441 3.58751C28.811 3.3636 28.5942 3.20057 28.3404 3.13378C28.0867 3.06699 27.8166 3.10183 27.5886 3.23073L23.2912 5.68874C23.0642 5.81977 22.8989 6.03431 22.8313 6.28552C22.7637 6.53673 22.7994 6.80419 22.9305 7.02947L25.4154 11.2803C25.5032 11.4297 25.6293 11.5534 25.781 11.6389C25.9327 11.7245 26.1045 11.7688 26.2792 11.7675C26.4518 11.7668 26.6214 11.7222 26.7716 11.6379L31.0585 9.17986C31.1713 9.1157 31.27 9.02996 31.3488 8.92765C31.4277 8.82534 31.4852 8.70851 31.5179 8.58398C31.5554 8.46029 31.5668 8.33031 31.5515 8.20207C31.5363 8.07383 31.4946 7.95005 31.429 7.83838ZM26.6391 9.43907L25.1519 6.88646L27.7325 5.41687L29.2197 7.96948L26.6391 9.43907Z" fill="#7C5368"/>
<path d="M52.4044 31.8756L43.4812 16.1905C43.3536 15.9639 43.1402 15.7968 42.888 15.7258C42.6358 15.6548 42.3654 15.6859 42.1363 15.8121L26.2794 24.6386C26.0509 24.7654 25.8825 24.9765 25.8108 25.2257C25.7391 25.475 25.7701 25.7422 25.8969 25.9689L34.82 41.6644C34.9509 41.8919 35.1675 42.059 35.4225 42.1292C35.5084 42.1508 35.5966 42.1618 35.6853 42.162C35.8545 42.1626 36.0208 42.1178 36.1664 42.0324L52.0339 33.2059C52.2639 33.0764 52.4328 32.8622 52.5038 32.61C52.5691 32.3618 52.5334 32.0981 52.4044 31.8756ZM36.064 39.8455L28.1047 25.8721L42.2447 18.0079L50.1981 31.9836L36.064 39.8455Z" fill="#7C5368"/>
<path d="M40.3421 23.5347L37.8571 19.2838C37.7241 19.0599 37.5072 18.8969 37.2535 18.8301C36.9998 18.7633 36.7297 18.7981 36.5017 18.927L32.2043 21.385C31.9773 21.5161 31.812 21.7306 31.7444 21.9818C31.6768 22.233 31.7125 22.5005 31.8436 22.7258L34.3285 26.9766C34.4163 27.1259 34.5424 27.2496 34.6941 27.3352C34.8458 27.4207 35.0176 27.4651 35.1922 27.4638C35.3646 27.463 35.534 27.4183 35.6839 27.3342L39.9814 24.8761C40.208 24.7446 40.3729 24.5299 40.4404 24.2787C40.508 24.0276 40.4726 23.7602 40.3421 23.5347ZM35.5522 25.1354L34.065 22.5828L36.6455 21.1117L38.1328 23.6643L35.5522 25.1354Z" fill="#7C5368"/>
</g>
<defs>
<clipPath id="clip0_2481_1482">
<rect width="56" height="51" fill="white"/>
</clipPath>
</defs>
</svg>
